<svg version="1" xmlns="http://www.w3.org/2000/svg" width="800" height="800" viewBox="0 0 600.000000 600.000000"><path d="M40.5 65.3c-2.2.6-4.6 1.6-5.3 2.4-.7.7-1.7 1.3-2.1 1.3-1.1 0-3.3 5-3.8 8.7-.3 2.2.4 5.1 2 8.5 1.9 4.3 19.4 27 42.7 55.8 1.6 1.9 4.2 5.3 5.9 7.5 1.7 2.2 4.2 5.3 5.6 7 1.3 1.6 6.1 7.7 10.7 13.5s8.7 11 9.3 11.6c.5.6 2.2 2.6 3.6 4.5 6.7 8.5 28.2 35.6 29.8 37.4 1.5 1.9 3.8 4.7 12.9 16.4 1.5 1.9 11.5 14.5 22.3 28l19.7 24.6-1.8 2.5c-1 1.4-7.7 9.9-14.9 19s-14.1 17.8-15.4 19.3c-1.2 1.6-2.9 3.7-3.7 4.6-.8 1-2.5 3.1-3.7 4.7-3.2 4.2-23.9 30.3-27.3 34.4-1.6 1.9-3.9 4.8-5.2 6.5-1.2 1.6-2.6 3.3-3.1 3.6-.5.4-1.4 1.5-2 2.6-.7 1.1-5.2 7.1-10.2 13.3-4.9 6.2-16.5 20.8-25.7 32.4-9.2 11.6-17.4 21.8-18.1 22.6-.8.8-3.1 3.7-5.2 6.5-2 2.7-4 5.2-4.4 5.5-.3.3-2.5 3-4.8 6-2.2 3-5 6.6-6.2 8-19 23.1-23.1 29.6-23.3 36.5-.1 5.9 2.2 9.2 8.8 12.4l4.9 2.4 69.5.1c71.1.1 76.8-.1 87-3.9 2.5-.8 5.4-1.8 6.4-2 4-.9 17.1-9.3 23-14.7 3.5-3.1 8.2-8.3 10.7-11.5 2.4-3.2 4.6-6 4.9-6.3.3-.3 2.1-2.5 3.9-5 1.9-2.5 4-5 4.6-5.5.6-.6 3.1-3.7 5.5-7 2.5-3.3 4.7-6.2 5-6.5.4-.3 6.7-8.2 14.1-17.5 14.8-18.8 13.7-17.4 21.1-26.6 2.9-3.6 6.4-8.1 7.8-9.9 1.4-1.9 3.3-4.2 4.3-5.2.9-1 1.7-2.2 1.7-2.7s.3-1.1.8-1.3c.5-.2 16.4-19.9 28.9-35.8.6-.8 3.6-4.5 6.5-8.1 2.9-3.7 6.3-7.9 7.5-9.4 7.5-9.5 42-53 45.8-57.7l4.6-5.7-4.3-5.3c-2.4-2.9-5.5-6.9-6.9-8.8-1.5-1.9-3.7-4.6-4.9-6-1.2-1.4-3.4-4.1-4.9-6-2.9-3.9-49.1-62-52.5-66-1.1-1.4-3.7-4.6-5.6-7-1.9-2.5-4-5.2-4.7-6-.7-.8-5.3-6.7-10.2-13-5-6.3-9.6-12.1-10.2-12.9-.7-.7-9.5-11.7-19.6-24.5-10.1-12.7-18.9-23.8-19.6-24.6-.7-.8-2.8-3.5-4.7-6-1.9-2.5-3.7-4.7-4-5-.3-.3-2.1-2.5-3.9-5-6.1-8.1-16.5-17.6-23.6-21.5-6.5-3.7-16.6-8.2-20.3-9-1-.3-3.3-.8-5.3-1.3-5-1.3-145.4-1.1-150.4.1zM409.5 65.1c-5.7 1.2-21.5 7.2-21.5 8.1 0 .4-.5.8-1.1.8-2 0-14.3 8.7-17.9 12.7-3 3.1-22.7 27.7-34.5 42.8-1.6 2.1-4.5 5.6-6.2 7.7-1.8 2.2-3.3 4.5-3.3 5 0 .6 3.3 5.2 7.4 10.2 4 5 9.1 11.3 11.1 14.1 2.1 2.7 4.1 5.2 4.4 5.5.4.3 2.2 2.5 4.1 5 3.9 5 58.2 73.3 60.8 76.5 1 1.1 4.1 5.1 7.1 8.8l5.3 6.7 8.5-10.7c4.7-6 9.8-12.4 11.4-14.3 1.5-1.9 6-7.6 9.9-12.5 4-5 8.4-10.6 10-12.5 1.6-1.9 9.6-12.1 17.9-22.5 8.4-10.5 15.7-19.7 16.4-20.5.7-.8 6.4-8 12.7-16 6.3-8 11.9-15 12.5-15.6.5-.6 1.9-2.3 3-3.8 1.1-1.6 2.5-3.3 3-4 .6-.6 7.1-8.8 14.5-18.1 7.4-9.4 13.7-17.2 14-17.5 2-1.7 9.2-12.2 10.5-15.3 3.3-8 .8-15.6-6.5-19.3-3.3-1.8-8-1.9-76.5-2-40.1 0-74.8.3-77 .7zM421.1 322.2c-2.3 2.9-4.9 6.2-5.9 7.3-1 1.1-3.4 4-5.3 6.5-1.8 2.4-4.4 5.6-5.5 7-1.2 1.4-9.9 12.2-19.3 24-9.5 11.8-18 22.4-18.9 23.5-1 1.1-4.2 5.1-7.2 9-3 3.8-5.7 7.2-6 7.5-2.4 2.2-28 35.2-28 36 0 .6 2.8 4.6 6.3 8.9 3.4 4.3 11.8 15.2 18.7 24.1 6.9 8.9 13.4 17.3 14.5 18.6 1.1 1.3 3.6 4.5 5.5 7.1 4.2 5.7 14.3 16 18.6 19 8.5 5.9 23.9 12.2 34 13.9 6.9 1.2 142.5.8 146.8-.4 7.9-2.3 12.6-7.2 12.6-13.5 0-4.8-5.7-15-12.4-22.4-.6-.6-2.2-2.6-3.6-4.4-1.4-1.8-5.4-6.9-9-11.4-3.6-4.5-7.8-9.9-9.5-12-1.6-2.1-6.1-7.7-9.8-12.4-6.9-8.7-7.7-9.6-16.4-20.6-2.6-3.3-5.2-6.5-5.8-7.1-.5-.7-1.9-2.4-3-4-1.1-1.5-4.9-6.4-8.5-10.8-3.6-4.5-10.8-13.5-16-20.1-9.7-12.3-10.8-13.7-12.5-15.8-.6-.7-2.6-3.2-4.5-5.7s-3.7-4.7-4-5c-.3-.3-3.7-4.6-7.5-9.5-3.8-5-7.7-9.9-8.7-11-1-1.1-7-8.6-13.4-16.8-6.3-8.1-11.7-14.7-11.9-14.7-.2 0-2.2 2.4-4.4 5.2z"/></svg>