<?xml version="1.0" standalone="no"?>
<!DOCTYPE svg PUBLIC "-//W3C//DTD SVG 20010904//EN"
 "http://www.w3.org/TR/2001/REC-SVG-20010904/DTD/svg10.dtd">
<svg version="1.0" xmlns="http://www.w3.org/2000/svg"
 width="400.000000pt" height="400.000000pt" viewBox="0 0 400.000000 400.000000"
 preserveAspectRatio="xMidYMid meet">
<metadata>
Created by potrace 1.11, written by Peter Selinger 2001-2013
</metadata>
<g transform="translate(0.000000,400.000000) scale(0.100000,-0.100000)"
fill="#000000" stroke="none">
<path d="M2129 3487 c-80 -76 -252 -239 -426 -402 -194 -183 -298 -281 -357
-335 -98 -91 -100 -94 -117 -117 -8 -12 -28 -24 -45 -27 -16 -2 -29 -5 -29 -6
0 -1 -18 -3 -40 -5 -31 -3 -159 -31 -260 -58 -134 -36 -436 -178 -645 -303
-63 -38 -118 -67 -122 -66 -5 1 -8 -2 -8 -8 0 -5 5 -10 10 -10 6 0 25 -16 43
-35 l34 -36 108 66 c305 185 699 365 775 353 26 -3 32 4 -112 -135 -55 -54
-113 -91 -155 -99 -46 -9 -427 -210 -499 -263 -21 -15 -20 -16 25 -57 l45 -41
68 43 c38 24 70 44 73 44 2 0 26 13 52 30 26 16 49 30 52 30 4 0 25 -18 48
-40 41 -37 54 -60 34 -60 -12 0 -205 -113 -209 -122 -2 -5 -8 -6 -13 -2 -5 3
-9 -1 -8 -8 1 -16 89 -95 89 -79 0 6 6 11 13 11 7 0 28 13 47 28 19 16 56 41
83 56 26 15 47 33 47 39 0 6 3 7 7 4 3 -4 12 -2 19 4 11 9 22 3 48 -22 19 -19
120 -117 226 -219 105 -102 247 -239 314 -305 68 -66 199 -192 291 -280 92
-88 172 -166 179 -173 6 -7 33 -34 60 -60 108 -103 167 -161 253 -244 49 -49
93 -88 98 -88 4 0 44 36 89 79 184 179 285 277 511 496 131 127 275 266 320
310 263 255 548 531 622 603 48 45 82 82 77 82 -5 0 -60 48 -121 108 -62 59
-176 168 -254 242 -78 74 -161 153 -184 175 -23 22 -117 112 -209 200 -93 88
-194 185 -226 215 -102 97 -391 373 -478 455 -46 44 -94 90 -105 103 -11 12
-25 22 -31 22 -6 0 -54 -42 -107 -93z"/>
</g>
</svg>
